<svg width="25" height="24" viewBox="0 0 25 24" fill="none" xmlns="http://www.w3.org/2000/svg">
<path d="M18.75 0.75H6.25C4.92392 0.75 3.65215 1.27678 2.71447 2.21447C1.77678 3.15215 1.25 4.42392 1.25 5.75V18.25C1.25 19.5761 1.77678 20.8479 2.71447 21.7855C3.65215 22.7232 4.92392 23.25 6.25 23.25H18.75C20.0761 23.25 21.3479 22.7232 22.2855 21.7855C23.2232 20.8479 23.75 19.5761 23.75 18.25V5.75C23.75 4.42392 23.2232 3.15215 22.2855 2.21447C21.3479 1.27678 20.0761 0.75 18.75 0.75Z" stroke="white" stroke-width="1.5" stroke-linejoin="round"/>
<path d="M12.5 17C13.8261 17 15.0979 16.4732 16.0355 15.5355C16.9732 14.5979 17.5 13.3261 17.5 12C17.5 10.6739 16.9732 9.40215 16.0355 8.46447C15.0979 7.52678 13.8261 7 12.5 7C11.1739 7 9.90215 7.52678 8.96447 8.46447C8.02678 9.40215 7.5 10.6739 7.5 12C7.5 13.3261 8.02678 14.5979 8.96447 15.5355C9.90215 16.4732 11.1739 17 12.5 17V17Z" stroke="white" stroke-width="1.5" stroke-linejoin="round"/>
<path d="M19.375 6.375C19.7065 6.375 20.0245 6.2433 20.2589 6.00888C20.4933 5.77446 20.625 5.45652 20.625 5.125C20.625 4.79348 20.4933 4.47554 20.2589 4.24112C20.0245 4.0067 19.7065 3.875 19.375 3.875C19.0435 3.875 18.7255 4.0067 18.4911 4.24112C18.2567 4.47554 18.125 4.79348 18.125 5.125C18.125 5.45652 18.2567 5.77446 18.4911 6.00888C18.7255 6.2433 19.0435 6.375 19.375 6.375Z" fill="white"/>
</svg>
