<svg width="31" height="20" viewBox="0 0 31 20" fill="none" xmlns="http://www.w3.org/2000/svg">
<path d="M10.2519 17.5749C11.6008 17.6327 12.8778 17.5792 13.9453 17.409C21.0015 16.2773 25.6932 12.0122 25.6932 4.97666C25.6932 4.40237 24.1796 2.4044 21.2962 2.4044C20.1595 2.40425 19.0681 2.76257 18.257 3.40227C17.4458 4.04196 16.9797 4.91189 16.9589 5.82486L10.2519 17.5749ZM10.2519 17.5749L10.1194 17.6527L10.0688 17.5664L10.0738 17.4665C10.1248 17.4691 10.1758 17.4715 10.2267 17.4737L12.4497 16.1692L10.2519 17.5749ZM16.859 5.82259L16.859 5.82265L16.8171 7.7147C16.8151 7.79848 16.7911 7.88202 16.7453 7.96002C16.6994 8.03817 16.6324 8.1094 16.5472 8.16805C16.4621 8.2267 16.3613 8.27099 16.2512 8.29714C16.1411 8.32328 16.025 8.33048 15.9108 8.31813L13.5763 8.06344C13.5763 8.06344 13.5763 8.06343 13.5763 8.06343C10.5224 7.729 7.59423 6.59903 4.78215 4.71694L4.66097 4.63583L4.62897 4.77811C4.17731 6.78637 4.39108 8.49609 5.257 9.97335C6.12122 11.4477 7.62826 12.6789 9.74102 13.7462L9.74104 13.7462L12.3538 15.0654L12.3989 14.9761L12.3538 15.0654C12.4651 15.1216 12.5552 15.1977 12.618 15.2853C12.6806 15.3727 12.7142 15.4691 12.7183 15.5661C12.7225 15.663 12.6971 15.7605 12.6426 15.8504C12.5879 15.9406 12.505 16.021 12.3992 16.0828L12.3991 16.0829L10.0182 17.4802L9.72951 17.6496L10.0638 17.6663C11.485 17.7374 12.8368 17.687 13.9611 17.5078L13.9612 17.5078C17.5046 16.9394 20.4631 15.583 22.5366 13.4769C24.6115 11.3694 25.7932 8.51832 25.7932 4.97666C25.7932 4.88562 25.7639 4.77727 25.7144 4.66182C25.6642 4.54475 25.5902 4.41366 25.4937 4.27526C25.3006 3.99839 25.0141 3.68753 24.6371 3.39606C23.8825 2.81258 22.7621 2.3044 21.2962 2.3044C20.1394 2.30425 19.0256 2.66872 18.195 3.32375C17.3639 3.97918 16.8805 4.87566 16.859 5.82259ZM28.1554 1.8287C28.7404 1.76196 29.4285 1.58599 30.3504 1.15674C29.8841 2.97895 29.6228 3.79424 28.6103 4.90944L28.5844 4.93803V4.97666C28.5844 9.53873 26.8403 12.9234 24.2137 15.3114C21.5846 17.7016 18.0661 19.0972 14.5158 19.6663C12.0856 20.0558 9.09832 19.931 6.46316 19.4949C5.14612 19.2769 3.91947 18.9815 2.89656 18.635C2.00241 18.3321 1.27029 17.9921 0.76933 17.6347C1.39895 17.587 2.55437 17.4739 3.84007 17.2336C5.33201 16.9547 7.00976 16.5029 8.24399 15.7772L8.39837 15.6864L8.2401 15.6026C8.17764 15.5695 8.10968 15.534 8.03676 15.4958C6.90129 14.9015 4.56295 13.6776 3.04112 11.4348C2.23288 10.2436 1.65508 8.76474 1.61235 6.93784C1.57024 5.13779 2.04747 2.99387 3.34469 0.448539C5.8533 2.78185 8.40114 4.37777 10.9872 5.23022L10.9872 5.23022C11.8554 5.51631 12.3992 5.65741 12.8271 5.73782C13.1509 5.79868 13.4084 5.82465 13.6852 5.85256C13.7734 5.86145 13.8635 5.87054 13.9583 5.88101L14.2999 5.91873L14.0691 5.73352C14.1061 4.61779 14.5459 3.53176 15.3396 2.608C16.1453 1.67034 17.2799 0.941826 18.6032 0.516487C19.9264 0.0911698 21.3772 -0.011279 22.7734 0.222415C24.1695 0.456118 25.4465 1.01516 26.4452 1.82721L26.473 1.84982L26.5088 1.84962C26.6677 1.84872 26.8258 1.85304 26.9864 1.85743C27.3498 1.86736 27.7264 1.87765 28.1554 1.8287Z" fill="white" stroke="white" stroke-width="0.2"/>
</svg>
